<?xml version="1.0" encoding="UTF-8"?>
<svg id="Layer_1" xmlns="http://www.w3.org/2000/svg" version="1.1" viewBox="0 0 840.22 595.6">
  <!-- Generator: Adobe Illustrator 30.1.0, SVG Export Plug-In . SVG Version: 2.1.1 Build 136)  -->
  <defs>
    <style>
      .st0, .st1, .st2 {
        fill: #561211;
      }

      .st3, .st4, .st5 {
        fill: #121111;
      }

      .st6, .st7 {
        fill: #f9f9fa;
      }

      .st1, .st2 {
        stroke: #561211;
      }

      .st1, .st2, .st7, .st4, .st5 {
        stroke-miterlimit: 10;
      }

      .st1, .st4 {
        stroke-width: 2px;
      }

      .st2, .st5 {
        stroke-width: .75px;
      }

      .st7 {
        stroke: #f9f9fa;
      }

      .st4, .st5 {
        stroke: #121111;
      }
    </style>
  </defs>
  <rect class="st0" x=".26" y="-1309.76" width="842.07" height="593.89"/>
  <path class="st6" d="M496.92-1088.09c-1.97-3.45-3.8-6.23-5.87-9.17-5.25-7.46-10.92-14.62-16.99-21.44-4.42-4.97-8.7-9.4-8.98-8.28-1.19,4.7,10.14,23.05,15.98,31.88,5.83,8.82,12.92,20.95,16.72,33.81,0,0-9.97-4.42-13.87-8.78-7.78-8.69-17.51-38.95-30.96-34.91-15.26,4.59-8.25,31.21-2.92,38.58,12.82,17.75,19.86,30.29,25.77,24.09,7.03-7.37-17.92-15.98-22.96-22.98-10.56-14.64-9.92-34.01-.34-36.82,13.02-3.82,9.68,25.78,26.08,42.42,4.08,4.14,17.91,10.65,17.19,18.23-3.2,34.05-31.42,62.14-54.96,63.59-13.53-.11-26.04-6.97-26.04-20.47.04-12.89,9.19-14.89,14.14-14.7,7.01.27,12.93,7.07,11.85,14.35-.76,5.08-4.66,8.96-9.74,9.7-1.14.17-2.26.17-3.33.03l-1.44-.15,1.3.81s13,8.46,24.39-.35c4.92-3.8,9.5-12.45,8.51-21.54-1.01-9.37-7.05-25.87-14.26-31.93-15.24-12.81-36.79-5.94-39.54-14.91-3-9.77,4.48-23.98,8.37-34.12,1.91-4.99,5.45-13.1,7.5-18.03,2.16-5.21,5.96-16.22,8.51-24.75,3.78-12.63,7.66-39.43-4.14-44.61-8.76-3.85-22.4,5.85-32.06,16.53-6.46,7.14-39.68,50.23-39.4,59.32,0,0,48.31-61.78,58.91-56.99,6.72,3.03.49,20.8-6.85,30.51-20.95,27.72-24.64,28.93-42.97,48.88-10.59,11.52-19.81,28.63-20.55,40.79-3.01,49.72,31.14,82.82,80.95,82.82s85.62-36.12,84.69-84.07c-.37-19.17-6.51-36.55-12.69-47.36ZM394.31-978.12s-32.92-16.24-25.7-60.05c4.69-28.48,42.48-59.61,42.48-59.61-1.41,11.53-16,38.16-11.01,45.85,8.73,13.42,38.66,1.21,47.64,23.23-5.89-4.34-13.17-6.91-21.04-6.91-19.61,0-35.51,15.9-35.51,35.51,0,9.81,3.98,18.7,10.42,25.12,0,0-3.72-.91-7.28-3.14Z"/>
  <path class="st6" d="M376.28-921.46v18.54c0,1.93,0,3.51.18,5.27,0,.18,0,.26-.18.35-6.5,2.81-11.42,3.69-17.22,3.69-9.49,0-16.61-4.66-16.61-14.15s8.26-13.88,19.15-13.88c2.37,0,4.22.09,5.1.18v-1.41c0-2.2-1.14-6.94-8.7-6.94-4.13,0-7.82.88-10.9,2.37-.35.18-.7,0-.7-.44v-7.2c0-.44.18-.61.53-.79,3.43-1.67,8-2.64,12.74-2.64,11.6,0,16.61,7.47,16.61,17.05ZM366.71-913.91c-1.32-.18-2.64-.26-4.66-.26-6.77,0-9.93,2.37-9.93,6.41,0,3.25,2.28,6.33,8.52,6.33,2.2,0,4.22-.35,6.06-1.05v-11.42Z"/>
  <path class="st6" d="M386.15-927.61c0-2.9-.18-7.64-.35-9.4-.09-.44.09-.61.53-.61h7.38c.61,0,.88.18,1.05.53.26.79.44,2.02.53,3.43,3.69-3.16,7.82-4.83,12.39-4.83,6.24,0,13.97,3.25,13.97,16.87v26.54c0,.53-.26.7-.7.7h-8.52c-.53,0-.7-.26-.7-.7v-25.66c0-5.62-2.37-9.05-7.29-9.05-3.43,0-6.24,1.41-8.44,3.69v31.02c0,.44-.18.7-.61.7h-8.61c-.44,0-.61-.18-.61-.7v-32.51Z"/>
  <path class="st7" d="M468.72-916.53c.07,9.48-3.47,16.5-9.35,20.04,3.07,2.87,8.28,7.81,11.02,10.22.13.13.13.47-.2.47h-9.55c-.4,0-.8-.27-1-.4-1.8-1.54-4.94-4.41-8.35-7.61-.67.07-1.34.07-2.07.07-12.22,0-19.5-9.22-19.5-22.58s7.95-22.37,19.57-22.37c12.29,0,19.37,9.68,19.43,22.17ZM449.48-900.43c7.28,0,11.49-6.28,11.49-15.9-.07-9.55-4.41-15.63-11.82-15.63-6.75,0-11.69,5.41-11.69,15.63,0,8.88,4.14,15.9,12.02,15.9Z"/>
  <path class="st6" d="M510.51-921.46v18.54c0,1.93,0,3.51.18,5.27,0,.18,0,.26-.18.35-6.5,2.81-11.42,3.69-17.22,3.69-9.49,0-16.61-4.66-16.61-14.15s8.26-13.88,19.15-13.88c2.37,0,4.22.09,5.1.18v-1.41c0-2.2-1.14-6.94-8.7-6.94-4.13,0-7.82.88-10.9,2.37-.35.18-.7,0-.7-.44v-7.2c0-.44.18-.61.53-.79,3.43-1.67,8-2.64,12.74-2.64,11.6,0,16.61,7.47,16.61,17.05ZM500.93-913.91c-1.32-.18-2.64-.26-4.66-.26-6.77,0-9.93,2.37-9.93,6.41,0,3.25,2.28,6.33,8.52,6.33,2.2,0,4.22-.35,6.06-1.05v-11.42Z"/>
  <path class="st2" d="M1409.88-1088.09c-1.97-3.45-3.8-6.23-5.87-9.17-5.25-7.46-10.92-14.62-16.99-21.44-4.42-4.97-8.7-9.4-8.98-8.28-1.19,4.7,10.14,23.05,15.98,31.88,5.83,8.82,12.92,20.95,16.72,33.81,0,0-9.97-4.42-13.87-8.78-7.78-8.69-17.51-38.95-30.96-34.91-15.26,4.59-8.25,31.21-2.92,38.58,12.82,17.75,19.86,30.29,25.77,24.09,7.03-7.37-17.92-15.98-22.96-22.98-10.56-14.64-9.92-34.01-.34-36.82,13.02-3.82,9.68,25.78,26.08,42.42,4.08,4.14,17.91,10.65,17.19,18.23-3.2,34.05-31.42,62.14-54.96,63.59-13.53-.11-26.04-6.97-26.04-20.47.04-12.89,9.19-14.89,14.14-14.7,7.01.27,12.93,7.07,11.85,14.35-.76,5.08-4.66,8.96-9.74,9.7-1.14.17-2.26.17-3.33.03l-1.44-.15,1.3.81s13,8.46,24.39-.35c4.92-3.8,9.5-12.45,8.51-21.54-1.01-9.37-7.05-25.87-14.26-31.93-15.24-12.81-36.79-5.94-39.54-14.91-3-9.77,4.48-23.98,8.37-34.12,1.91-4.99,5.45-13.1,7.5-18.03,2.16-5.21,5.96-16.22,8.51-24.75,3.78-12.63,7.66-39.43-4.14-44.61-8.76-3.85-22.4,5.85-32.06,16.53-6.46,7.14-39.68,50.23-39.4,59.32,0,0,48.31-61.78,58.91-56.99,6.72,3.03.49,20.8-6.85,30.51-20.95,27.72-24.64,28.93-42.97,48.88-10.59,11.52-19.81,28.63-20.55,40.79-3.01,49.72,31.14,82.82,80.95,82.82s85.62-36.12,84.69-84.07c-.37-19.17-6.51-36.55-12.69-47.36ZM1307.27-978.13s-32.92-16.24-25.7-60.05c4.69-28.48,42.48-59.61,42.48-59.61-1.41,11.53-16,38.16-11.01,45.85,8.73,13.42,38.66,1.21,47.64,23.23-5.89-4.34-13.17-6.91-21.04-6.91-19.61,0-35.51,15.9-35.51,35.51,0,9.81,3.98,18.7,10.42,25.12,0,0-3.72-.91-7.28-3.14Z"/>
  <path class="st0" d="M1289.25-921.47v18.54c0,1.93,0,3.51.18,5.27,0,.18,0,.26-.18.35-6.5,2.81-11.42,3.69-17.22,3.69-9.49,0-16.61-4.66-16.61-14.15s8.26-13.88,19.15-13.88c2.37,0,4.22.09,5.1.18v-1.41c0-2.2-1.14-6.94-8.7-6.94-4.13,0-7.82.88-10.9,2.37-.35.18-.7,0-.7-.44v-7.2c0-.44.18-.61.53-.79,3.43-1.67,8-2.64,12.74-2.64,11.6,0,16.61,7.47,16.61,17.05ZM1279.67-913.91c-1.32-.18-2.64-.26-4.66-.26-6.77,0-9.93,2.37-9.93,6.41,0,3.25,2.28,6.33,8.52,6.33,2.2,0,4.22-.35,6.06-1.05v-11.42Z"/>
  <path class="st0" d="M1299.12-927.62c0-2.9-.18-7.64-.35-9.4-.09-.44.09-.61.53-.61h7.38c.61,0,.88.18,1.05.53.26.79.44,2.02.53,3.43,3.69-3.16,7.82-4.83,12.39-4.83,6.24,0,13.97,3.25,13.97,16.87v26.54c0,.53-.26.7-.7.7h-8.52c-.53,0-.7-.26-.7-.7v-25.66c0-5.62-2.37-9.05-7.29-9.05-3.43,0-6.24,1.41-8.44,3.69v31.02c0,.44-.18.7-.61.7h-8.61c-.44,0-.61-.18-.61-.7v-32.51Z"/>
  <path class="st1" d="M1381.68-916.54c.07,9.48-3.47,16.5-9.35,20.04,3.07,2.87,8.28,7.81,11.02,10.22.13.13.13.47-.2.47h-9.55c-.4,0-.8-.27-1-.4-1.8-1.54-4.94-4.41-8.35-7.61-.67.07-1.34.07-2.07.07-12.22,0-19.5-9.22-19.5-22.58s7.95-22.37,19.57-22.37c12.29,0,19.37,9.68,19.43,22.17ZM1362.45-900.44c7.28,0,11.49-6.28,11.49-15.9-.07-9.55-4.41-15.63-11.82-15.63-6.75,0-11.69,5.41-11.69,15.63,0,8.88,4.14,15.9,12.02,15.9Z"/>
  <path class="st0" d="M1423.48-921.47v18.54c0,1.93,0,3.51.18,5.27,0,.18,0,.26-.18.35-6.5,2.81-11.42,3.69-17.22,3.69-9.49,0-16.61-4.66-16.61-14.15s8.26-13.88,19.15-13.88c2.37,0,4.22.09,5.1.18v-1.41c0-2.2-1.14-6.94-8.7-6.94-4.13,0-7.82.88-10.9,2.37-.35.18-.7,0-.7-.44v-7.2c0-.44.18-.61.53-.79,3.43-1.67,8-2.64,12.74-2.64,11.6,0,16.61,7.47,16.61,17.05ZM1413.9-913.91c-1.32-.18-2.64-.26-4.66-.26-6.77,0-9.93,2.37-9.93,6.41,0,3.25,2.28,6.33,8.52,6.33,2.2,0,4.22-.35,6.06-1.05v-11.42Z"/>
  <rect class="st3" x="-2.73" y="-654.89" width="842.07" height="593.89"/>
  <path class="st6" d="M493.93-433.21c-1.97-3.45-3.8-6.23-5.87-9.17-5.25-7.46-10.92-14.62-16.99-21.44-4.42-4.97-8.7-9.4-8.98-8.28-1.19,4.7,10.14,23.05,15.98,31.88,5.83,8.82,12.92,20.95,16.72,33.81,0,0-9.97-4.42-13.87-8.78-7.78-8.69-17.51-38.95-30.96-34.91-15.26,4.59-8.25,31.21-2.92,38.58,12.82,17.75,19.86,30.29,25.77,24.09,7.03-7.37-17.92-15.98-22.96-22.98-10.56-14.64-9.92-34.01-.34-36.82,13.02-3.82,9.68,25.78,26.08,42.42,4.08,4.14,17.91,10.65,17.19,18.23-3.2,34.05-31.42,62.14-54.96,63.59-13.53-.11-26.04-6.97-26.04-20.47.04-12.89,9.19-14.89,14.14-14.7,7.01.27,12.93,7.07,11.85,14.35-.76,5.08-4.66,8.96-9.74,9.7-1.14.17-2.26.17-3.33.03l-1.44-.15,1.3.81s13,8.46,24.39-.35c4.92-3.8,9.5-12.45,8.51-21.54-1.01-9.37-7.05-25.87-14.26-31.93-15.24-12.81-36.79-5.94-39.54-14.91-3-9.77,4.48-23.98,8.37-34.12,1.91-4.99,5.45-13.1,7.5-18.03,2.16-5.21,5.96-16.22,8.51-24.75,3.78-12.63,7.66-39.43-4.14-44.61-8.76-3.85-22.4,5.85-32.06,16.53-6.46,7.14-39.68,50.23-39.4,59.32,0,0,48.31-61.78,58.91-56.99,6.72,3.03.49,20.8-6.85,30.51-20.95,27.72-24.64,28.93-42.97,48.88-10.59,11.52-19.81,28.63-20.55,40.79-3.01,49.72,31.14,82.82,80.95,82.82s85.62-36.12,84.69-84.07c-.37-19.17-6.51-36.55-12.69-47.36ZM391.32-323.25s-32.92-16.24-25.7-60.05c4.69-28.48,42.48-59.61,42.48-59.61-1.41,11.53-16,38.16-11.01,45.85,8.73,13.42,38.66,1.21,47.64,23.23-5.89-4.34-13.17-6.91-21.04-6.91-19.61,0-35.51,15.9-35.51,35.51,0,9.81,3.98,18.7,10.42,25.12,0,0-3.72-.91-7.28-3.14Z"/>
  <path class="st6" d="M373.29-266.59v18.54c0,1.93,0,3.51.18,5.27,0,.18,0,.26-.18.35-6.5,2.81-11.42,3.69-17.22,3.69-9.49,0-16.61-4.66-16.61-14.15s8.26-13.88,19.15-13.88c2.37,0,4.22.09,5.1.18v-1.41c0-2.2-1.14-6.94-8.7-6.94-4.13,0-7.82.88-10.9,2.37-.35.18-.7,0-.7-.44v-7.2c0-.44.18-.61.53-.79,3.43-1.67,8-2.64,12.74-2.64,11.6,0,16.61,7.47,16.61,17.05ZM363.71-259.03c-1.32-.18-2.64-.26-4.66-.26-6.77,0-9.93,2.37-9.93,6.41,0,3.25,2.28,6.33,8.52,6.33,2.2,0,4.22-.35,6.06-1.05v-11.42Z"/>
  <path class="st6" d="M383.16-272.74c0-2.9-.18-7.64-.35-9.4-.09-.44.09-.61.53-.61h7.38c.61,0,.88.18,1.05.53.26.79.44,2.02.53,3.43,3.69-3.16,7.82-4.83,12.39-4.83,6.24,0,13.97,3.25,13.97,16.87v26.54c0,.53-.26.7-.7.7h-8.52c-.53,0-.7-.26-.7-.7v-25.66c0-5.62-2.37-9.05-7.29-9.05-3.43,0-6.24,1.41-8.44,3.69v31.02c0,.44-.18.7-.61.7h-8.61c-.44,0-.61-.18-.61-.7v-32.51Z"/>
  <path class="st7" d="M465.73-261.66c.07,9.48-3.47,16.5-9.35,20.04,3.07,2.87,8.28,7.81,11.02,10.22.13.13.13.47-.2.47h-9.55c-.4,0-.8-.27-1-.4-1.8-1.54-4.94-4.41-8.35-7.61-.67.07-1.34.07-2.07.07-12.22,0-19.5-9.22-19.5-22.58s7.95-22.37,19.57-22.37c12.29,0,19.37,9.68,19.43,22.17ZM446.49-245.56c7.28,0,11.49-6.28,11.49-15.9-.07-9.55-4.41-15.63-11.82-15.63-6.75,0-11.69,5.41-11.69,15.63,0,8.88,4.14,15.9,12.02,15.9Z"/>
  <path class="st6" d="M507.52-266.59v18.54c0,1.93,0,3.51.18,5.27,0,.18,0,.26-.18.35-6.5,2.81-11.42,3.69-17.22,3.69-9.49,0-16.61-4.66-16.61-14.15s8.26-13.88,19.15-13.88c2.37,0,4.22.09,5.1.18v-1.41c0-2.2-1.14-6.94-8.7-6.94-4.13,0-7.82.88-10.9,2.37-.35.18-.7,0-.7-.44v-7.2c0-.44.18-.61.53-.79,3.43-1.67,8-2.64,12.74-2.64,11.6,0,16.61,7.47,16.61,17.05ZM497.94-259.03c-1.32-.18-2.64-.26-4.66-.26-6.77,0-9.93,2.37-9.93,6.41,0,3.25,2.28,6.33,8.52,6.33,2.2,0,4.22-.35,6.06-1.05v-11.42Z"/>
  <path class="st5" d="M1409.88-433.7c-1.97-3.45-3.8-6.23-5.87-9.17-5.25-7.46-10.92-14.62-16.99-21.44-4.42-4.97-8.7-9.4-8.98-8.28-1.19,4.7,10.14,23.05,15.98,31.88,5.83,8.82,12.92,20.95,16.72,33.81,0,0-9.97-4.42-13.87-8.78-7.78-8.69-17.51-38.95-30.96-34.91-15.26,4.59-8.25,31.21-2.92,38.58,12.82,17.75,19.86,30.29,25.77,24.09,7.03-7.37-17.92-15.98-22.96-22.98-10.56-14.64-9.92-34.01-.34-36.82,13.02-3.82,9.68,25.78,26.08,42.42,4.08,4.14,17.91,10.65,17.19,18.23-3.2,34.05-31.42,62.14-54.96,63.59-13.53-.11-26.04-6.97-26.04-20.47.04-12.89,9.19-14.89,14.14-14.7,7.01.27,12.93,7.07,11.85,14.35-.76,5.08-4.66,8.96-9.74,9.7-1.14.17-2.26.17-3.33.03l-1.44-.15,1.3.81s13,8.46,24.39-.35c4.92-3.8,9.5-12.45,8.51-21.54-1.01-9.37-7.05-25.87-14.26-31.93-15.24-12.81-36.79-5.94-39.54-14.91-3-9.77,4.48-23.98,8.37-34.12,1.91-4.99,5.45-13.1,7.5-18.03,2.16-5.21,5.96-16.22,8.51-24.75,3.78-12.63,7.66-39.43-4.14-44.61-8.76-3.85-22.4,5.85-32.06,16.53-6.46,7.14-39.68,50.23-39.4,59.32,0,0,48.31-61.78,58.91-56.99,6.72,3.03.49,20.8-6.85,30.51-20.95,27.72-24.64,28.93-42.97,48.88-10.59,11.52-19.81,28.63-20.55,40.79-3.01,49.72,31.14,82.82,80.95,82.82s85.62-36.12,84.69-84.07c-.37-19.17-6.51-36.55-12.69-47.36ZM1307.27-323.73s-32.92-16.24-25.7-60.05c4.69-28.48,42.48-59.61,42.48-59.61-1.41,11.53-16,38.16-11.01,45.85,8.73,13.42,38.66,1.21,47.64,23.23-5.89-4.34-13.17-6.91-21.04-6.91-19.61,0-35.51,15.9-35.51,35.51,0,9.81,3.98,18.7,10.42,25.12,0,0-3.72-.91-7.28-3.14Z"/>
  <path class="st3" d="M1289.25-267.08v18.54c0,1.93,0,3.51.18,5.27,0,.18,0,.26-.18.35-6.5,2.81-11.42,3.69-17.22,3.69-9.49,0-16.61-4.66-16.61-14.15s8.26-13.88,19.15-13.88c2.37,0,4.22.09,5.1.18v-1.41c0-2.2-1.14-6.94-8.7-6.94-4.13,0-7.82.88-10.9,2.37-.35.18-.7,0-.7-.44v-7.2c0-.44.18-.61.53-.79,3.43-1.67,8-2.64,12.74-2.64,11.6,0,16.61,7.47,16.61,17.05ZM1279.67-259.52c-1.32-.18-2.64-.26-4.66-.26-6.77,0-9.93,2.37-9.93,6.41,0,3.25,2.28,6.33,8.52,6.33,2.2,0,4.22-.35,6.06-1.05v-11.42Z"/>
  <path class="st3" d="M1299.12-273.23c0-2.9-.18-7.64-.35-9.4-.09-.44.09-.61.53-.61h7.38c.61,0,.88.18,1.05.53.26.79.44,2.02.53,3.43,3.69-3.16,7.82-4.83,12.39-4.83,6.24,0,13.97,3.25,13.97,16.87v26.54c0,.53-.26.7-.7.7h-8.52c-.53,0-.7-.26-.7-.7v-25.66c0-5.62-2.37-9.05-7.29-9.05-3.43,0-6.24,1.41-8.44,3.69v31.02c0,.44-.18.7-.61.7h-8.61c-.44,0-.61-.18-.61-.7v-32.51Z"/>
  <path class="st4" d="M1381.68-262.14c.07,9.48-3.47,16.5-9.35,20.04,3.07,2.87,8.28,7.81,11.02,10.22.13.13.13.47-.2.47h-9.55c-.4,0-.8-.27-1-.4-1.8-1.54-4.94-4.41-8.35-7.61-.67.07-1.34.07-2.07.07-12.22,0-19.5-9.22-19.5-22.58s7.95-22.37,19.57-22.37c12.29,0,19.37,9.68,19.43,22.17ZM1362.45-246.05c7.28,0,11.49-6.28,11.49-15.9-.07-9.55-4.41-15.63-11.82-15.63-6.75,0-11.69,5.41-11.69,15.63,0,8.88,4.14,15.9,12.02,15.9Z"/>
  <path class="st3" d="M1423.48-267.08v18.54c0,1.93,0,3.51.18,5.27,0,.18,0,.26-.18.35-6.5,2.81-11.42,3.69-17.22,3.69-9.49,0-16.61-4.66-16.61-14.15s8.26-13.88,19.15-13.88c2.37,0,4.22.09,5.1.18v-1.41c0-2.2-1.14-6.94-8.7-6.94-4.13,0-7.82.88-10.9,2.37-.35.18-.7,0-.7-.44v-7.2c0-.44.18-.61.53-.79,3.43-1.67,8-2.64,12.74-2.64,11.6,0,16.61,7.47,16.61,17.05ZM1413.9-259.52c-1.32-.18-2.64-.26-4.66-.26-6.77,0-9.93,2.37-9.93,6.41,0,3.25,2.28,6.33,8.52,6.33,2.2,0,4.22-.35,6.06-1.05v-11.42Z"/>
  <path class="st6" d="M493.81,222.11c-1.97-3.45-3.8-6.23-5.87-9.17-5.25-7.46-10.92-14.62-16.99-21.44-4.42-4.97-8.7-9.4-8.98-8.28-1.19,4.7,10.14,23.05,15.98,31.88,5.83,8.82,12.92,20.95,16.72,33.81,0,0-9.97-4.42-13.87-8.78-7.78-8.69-17.51-38.95-30.96-34.91-15.26,4.59-8.25,31.21-2.92,38.58,12.82,17.75,19.86,30.29,25.77,24.09,7.03-7.37-17.92-15.98-22.96-22.98-10.56-14.64-9.92-34.01-.34-36.82,13.02-3.82,9.68,25.78,26.08,42.42,4.08,4.14,17.91,10.65,17.19,18.23-3.2,34.05-31.42,62.14-54.96,63.59-13.53-.11-26.04-6.97-26.04-20.47.04-12.89,9.19-14.89,14.14-14.7,7.01.27,12.93,7.07,11.85,14.35-.76,5.08-4.66,8.96-9.74,9.7-1.14.17-2.26.17-3.33.03l-1.44-.15,1.3.81s13,8.46,24.39-.35c4.92-3.8,9.5-12.45,8.51-21.54-1.01-9.37-7.05-25.87-14.26-31.93-15.24-12.81-36.79-5.94-39.54-14.91-3-9.77,4.48-23.98,8.37-34.12,1.91-4.99,5.45-13.1,7.5-18.03,2.16-5.21,5.96-16.22,8.51-24.75,3.78-12.63,7.66-39.43-4.14-44.61-8.76-3.85-22.4,5.85-32.06,16.53-6.46,7.14-39.68,50.23-39.4,59.32,0,0,48.31-61.78,58.91-56.99,6.72,3.03.49,20.8-6.85,30.51-20.95,27.72-24.64,28.93-42.97,48.88-10.59,11.52-19.81,28.63-20.55,40.79-3.01,49.72,31.14,82.82,80.95,82.82s85.62-36.12,84.69-84.07c-.37-19.17-6.51-36.55-12.69-47.36ZM391.21,332.08s-32.92-16.24-25.7-60.05c4.69-28.48,42.48-59.61,42.48-59.61-1.41,11.53-16,38.16-11.01,45.85,8.73,13.42,38.66,1.21,47.64,23.23-5.89-4.34-13.17-6.91-21.04-6.91-19.61,0-35.51,15.9-35.51,35.51,0,9.81,3.98,18.7,10.42,25.12,0,0-3.72-.91-7.28-3.14Z"/>
  <path class="st6" d="M373.18,388.74v18.54c0,1.93,0,3.51.18,5.27,0,.18,0,.26-.18.35-6.5,2.81-11.42,3.69-17.22,3.69-9.49,0-16.61-4.66-16.61-14.15s8.26-13.88,19.15-13.88c2.37,0,4.22.09,5.1.18v-1.41c0-2.2-1.14-6.94-8.7-6.94-4.13,0-7.82.88-10.9,2.37-.35.18-.7,0-.7-.44v-7.2c0-.44.18-.61.53-.79,3.43-1.67,8-2.64,12.74-2.64,11.6,0,16.61,7.47,16.61,17.05ZM363.6,396.29c-1.32-.18-2.64-.26-4.66-.26-6.77,0-9.93,2.37-9.93,6.41,0,3.25,2.28,6.33,8.52,6.33,2.2,0,4.22-.35,6.06-1.05v-11.42Z"/>
  <path class="st6" d="M383.05,382.59c0-2.9-.18-7.64-.35-9.4-.09-.44.09-.61.53-.61h7.38c.61,0,.88.18,1.05.53.26.79.44,2.02.53,3.43,3.69-3.16,7.82-4.83,12.39-4.83,6.24,0,13.97,3.25,13.97,16.87v26.54c0,.53-.26.7-.7.7h-8.52c-.53,0-.7-.26-.7-.7v-25.66c0-5.62-2.37-9.05-7.29-9.05-3.43,0-6.24,1.41-8.44,3.69v31.02c0,.44-.18.7-.61.7h-8.61c-.44,0-.61-.18-.61-.7v-32.51Z"/>
  <path class="st7" d="M465.62,393.67c.07,9.48-3.47,16.5-9.35,20.04,3.07,2.87,8.28,7.81,11.02,10.22.13.13.13.47-.2.47h-9.55c-.4,0-.8-.27-1-.4-1.8-1.54-4.94-4.41-8.35-7.61-.67.07-1.34.07-2.07.07-12.22,0-19.5-9.22-19.5-22.58s7.95-22.37,19.57-22.37c12.29,0,19.37,9.68,19.43,22.17ZM446.38,409.77c7.28,0,11.49-6.28,11.49-15.9-.07-9.55-4.41-15.63-11.82-15.63-6.75,0-11.69,5.41-11.69,15.63,0,8.88,4.14,15.9,12.02,15.9Z"/>
  <path class="st6" d="M507.41,388.74v18.54c0,1.93,0,3.51.18,5.27,0,.18,0,.26-.18.35-6.5,2.81-11.42,3.69-17.22,3.69-9.49,0-16.61-4.66-16.61-14.15s8.26-13.88,19.15-13.88c2.37,0,4.22.09,5.1.18v-1.41c0-2.2-1.14-6.94-8.7-6.94-4.13,0-7.82.88-10.9,2.37-.35.18-.7,0-.7-.44v-7.2c0-.44.18-.61.53-.79,3.43-1.67,8-2.64,12.74-2.64,11.6,0,16.61,7.47,16.61,17.05ZM497.83,396.29c-1.32-.18-2.64-.26-4.66-.26-6.77,0-9.93,2.37-9.93,6.41,0,3.25,2.28,6.33,8.52,6.33,2.2,0,4.22-.35,6.06-1.05v-11.42Z"/>
</svg>